<svg id="Layer_1" data-name="Layer 1" xmlns="http://www.w3.org/2000/svg" viewBox="0 0 1032 844"><defs><style>.cls-1{fill:blue;}</style></defs><title>facebook</title><path class="cls-1" d="M496.5,79C273.65,79,93,259.65,93,482.5S273.65,886,496.5,886,900,705.35,900,482.5,719.35,79,496.5,79Zm94.44,226.75c-7.89-3.64-18.81-6.68-34-6.68-45.5,0-57,40.05-57,84.95V399.8h71v40.65h-71v253H447.14v-253H405.88V399.8h41.26v-14c0-41.26,9.1-78.88,34-102.54,20-19.42,46.72-27.31,71.59-27.31,18.82,0,35.2,4.25,45.51,8.5Z" transform="translate(132 -42)"/><path class="cls-1" d="M-94,42a38,38,0,0,0-38,38,38,38,0,0,0,38,38A38,38,0,0,0-56,80,38,38,0,0,0-94,42Zm19.32,46.82a10,10,0,0,1-10,10h-17.9a10,10,0,0,1-10-10V70.92a10,10,0,0,1,10-10h17.9a10,10,0,0,1,10,10Z" transform="translate(132 -42)"/><circle class="cls-1" cx="38.63" cy="37.49" r="4.13"/><path class="cls-1" d="M-84.67,65.12h-17.9a5.81,5.81,0,0,0-5.81,5.8v17.9a5.81,5.81,0,0,0,5.81,5.81h17.9a5.81,5.81,0,0,0,5.81-5.81V70.92A5.81,5.81,0,0,0-84.67,65.12Zm-8.7,21.59a7.23,7.23,0,0,1-7.22-7.22,7.23,7.23,0,0,1,7.22-7.22,7.23,7.23,0,0,1,7.22,7.22A7.23,7.23,0,0,1-93.37,86.71Zm9.63-13.93a2.41,2.41,0,0,1-2.41-2.41A2.4,2.4,0,0,1-83.74,68a2.4,2.4,0,0,1,2.41,2.4A2.41,2.41,0,0,1-83.74,72.78Z" transform="translate(132 -42)"/></svg>